# Blender v3.2.0 OBJ File: ''
# www.blender.org
mtllib BonusHourglass.mtl
o bonusTime
v 1.002000 -0.500000 -0.500000
v 1.002000 -0.500000 0.500000
v 1.002000 0.500000 0.500000
v 1.002000 0.500000 -0.500000
v -1.002000 -0.500000 0.500000
v -1.002000 -0.500000 -0.500000
v -1.002000 0.500000 -0.500000
v -1.002000 0.500000 0.500000
v -0.500000 -0.500000 -1.002000
v 0.500000 -0.500000 -1.002000
v 0.500000 0.500000 -1.002000
v -0.500000 0.500000 -1.002000
v 0.500000 -0.500000 1.002000
v -0.500000 -0.500000 1.002000
v -0.500000 0.500000 1.002000
v 0.500000 0.500000 1.002000
v -1.001000 -1.001000 1.001000
v -1.001000 1.001000 1.001000
v -1.001000 1.001000 -1.001000
v -1.001000 -1.001000 -1.001000
v 1.001000 1.001000 -1.001000
v 1.001000 -1.001000 -1.001000
v 1.001000 1.001000 1.001000
v 1.001000 -1.001000 1.001000
v 1.000000 1.000000 -1.000000
v -1.000000 1.000000 -1.000000
v -1.000000 1.000000 1.000000
v 1.000000 1.000000 1.000000
v 1.000000 -1.000000 1.000000
v -1.000000 -1.000000 1.000000
v -1.000000 -1.000000 -1.000000
v 1.000000 -1.000000 -1.000000
v 0.600000 0.600000 1.400000
v 0.600000 1.400000 1.400000
v 0.600000 1.400000 0.600000
v 0.600000 0.600000 0.600000
v 1.400000 1.400000 0.600000
v 1.400000 0.600000 0.600000
v 1.400000 1.400000 1.400000
v 1.400000 0.600000 1.400000
v -1.400000 0.600000 -0.600000
v -1.400000 1.400000 -0.600000
v -1.400000 1.400000 -1.400000
v -1.400000 0.600000 -1.400000
v -0.600000 1.400000 -1.400000
v -0.600000 0.600000 -1.400000
v -0.600000 1.400000 -0.600000
v -0.600000 0.600000 -0.600000
v 0.600000 0.600000 -0.600000
v 0.600000 1.400000 -0.600000
v 0.600000 1.400000 -1.400000
v 0.600000 0.600000 -1.400000
v 1.400000 1.400000 -1.400000
v 1.400000 0.600000 -1.400000
v 1.400000 1.400000 -0.600000
v 1.400000 0.600000 -0.600000
v -1.400000 0.600000 1.400000
v -1.400000 1.400000 1.400000
v -1.400000 1.400000 0.600000
v -1.400000 0.600000 0.600000
v -0.600000 1.400000 0.600000
v -0.600000 0.600000 0.600000
v -0.600000 1.400000 1.400000
v -0.600000 0.600000 1.400000
v -1.400000 -1.400000 1.400000
v -1.400000 -0.600000 1.400000
v -1.400000 -0.600000 0.600000
v -1.400000 -1.400000 0.600000
v -0.600000 -0.600000 0.600000
v -0.600000 -1.400000 0.600000
v -0.600000 -0.600000 1.400000
v -0.600000 -1.400000 1.400000
v -1.400000 -1.400000 -0.600000
v -1.400000 -0.600000 -0.600000
v -1.400000 -0.600000 -1.400000
v -1.400000 -1.400000 -1.400000
v -0.600000 -0.600000 -1.400000
v -0.600000 -1.400000 -1.400000
v -0.600000 -0.600000 -0.600000
v -0.600000 -1.400000 -0.600000
v 0.600000 -1.400000 -0.600000
v 0.600000 -0.600000 -0.600000
v 0.600000 -0.600000 -1.400000
v 0.600000 -1.400000 -1.400000
v 1.400000 -0.600000 -1.400000
v 1.400000 -1.400000 -1.400000
v 1.400000 -0.600000 -0.600000
v 1.400000 -1.400000 -0.600000
v 0.600000 -1.400000 1.400000
v 0.600000 -0.600000 1.400000
v 0.600000 -0.600000 0.600000
v 0.600000 -1.400000 0.600000
v 1.400000 -0.600000 0.600000
v 1.400000 -1.400000 0.600000
v 1.400000 -0.600000 1.400000
v 1.400000 -1.400000 1.400000
v 0.900000 -0.800000 1.100000
v 0.900000 0.800000 1.100000
v 0.900000 0.800000 0.900000
v 0.900000 -0.800000 0.900000
v 1.100000 0.800000 0.900000
v 1.100000 -0.800000 0.900000
v 1.100000 0.800000 1.100000
v 1.100000 -0.800000 1.100000
v -1.100000 -0.800000 -0.900000
v -1.100000 0.800000 -0.900000
v -1.100000 0.800000 -1.100000
v -1.100000 -0.800000 -1.100000
v -0.900000 0.800000 -1.100000
v -0.900000 -0.800000 -1.100000
v -0.900000 0.800000 -0.900000
v -0.900000 -0.800000 -0.900000
v 0.900000 -0.800000 -0.900000
v 0.900000 0.800000 -0.900000
v 0.900000 0.800000 -1.100000
v 0.900000 -0.800000 -1.100000
v 1.100000 0.800000 -1.100000
v 1.100000 -0.800000 -1.100000
v 1.100000 0.800000 -0.900000
v 1.100000 -0.800000 -0.900000
v -1.100000 -1.100000 -0.800000
v -1.100000 -1.100000 0.800000
v -1.100000 -0.900000 0.800000
v -1.100000 -0.900000 -0.800000
v -0.900000 -0.900000 0.800000
v -0.900000 -0.900000 -0.800000
v -0.900000 -1.100000 0.800000
v -0.900000 -1.100000 -0.800000
v -1.100000 -0.800000 1.100000
v -1.100000 0.800000 1.100000
v -1.100000 0.800000 0.900000
v -1.100000 -0.800000 0.900000
v -0.900000 0.800000 0.900000
v -0.900000 -0.800000 0.900000
v -0.900000 0.800000 1.100000
v -0.900000 -0.800000 1.100000
v 0.900000 0.900000 -0.800000
v 0.900000 0.900000 0.800000
v 0.900000 1.100000 0.800000
v 0.900000 1.100000 -0.800000
v 1.100000 1.100000 0.800000
v 1.100000 1.100000 -0.800000
v 1.100000 0.900000 0.800000
v 1.100000 0.900000 -0.800000
v 0.900000 -1.100000 -0.800000
v 0.900000 -1.100000 0.800000
v 0.900000 -0.900000 0.800000
v 0.900000 -0.900000 -0.800000
v 1.100000 -0.900000 0.800000
v 1.100000 -0.900000 -0.800000
v 1.100000 -1.100000 0.800000
v 1.100000 -1.100000 -0.800000
v -1.100000 0.900000 -0.800000
v -1.100000 0.900000 0.800000
v -1.100000 1.100000 0.800000
v -1.100000 1.100000 -0.800000
v -0.900000 1.100000 0.800000
v -0.900000 1.100000 -0.800000
v -0.900000 0.900000 0.800000
v -0.900000 0.900000 -0.800000
v -0.800000 1.100000 -0.900000
v 0.800000 1.100000 -0.900000
v 0.800000 1.100000 -1.100000
v -0.800000 1.100000 -1.100000
v 0.800000 0.900000 -1.100000
v -0.800000 0.900000 -1.100000
v 0.800000 0.900000 -0.900000
v -0.800000 0.900000 -0.900000
v -0.800000 -0.900000 -0.900000
v 0.800000 -0.900000 -0.900000
v 0.800000 -0.900000 -1.100000
v -0.800000 -0.900000 -1.100000
v 0.800000 -1.100000 -1.100000
v -0.800000 -1.100000 -1.100000
v 0.800000 -1.100000 -0.900000
v -0.800000 -1.100000 -0.900000
v -0.800000 1.100000 1.100000
v 0.800000 1.100000 1.100000
v 0.800000 1.100000 0.900000
v -0.800000 1.100000 0.900000
v 0.800000 0.900000 0.900000
v -0.800000 0.900000 0.900000
v 0.800000 0.900000 1.100000
v -0.800000 0.900000 1.100000
v -0.800000 -0.900000 1.100000
v 0.800000 -0.900000 1.100000
v 0.800000 -0.900000 0.900000
v -0.800000 -0.900000 0.900000
v 0.800000 -1.100000 0.900000
v -0.800000 -1.100000 0.900000
v 0.800000 -1.100000 1.100000
v -0.800000 -1.100000 1.100000
v -1.020000 -0.600000 0.600000
v -1.020000 -0.600000 -0.600000
v -1.020000 0.600000 -0.600000
v -1.020000 0.600000 0.600000
v 1.020000 -0.600000 0.600000
v 1.020000 -0.600000 -0.600000
v 1.020000 0.600000 -0.600000
v 1.020000 0.600000 0.600000
v 0.600000 -0.600000 1.020000
v -0.600000 -0.600000 1.020000
v -0.600000 0.600000 1.020000
v 0.600000 0.600000 1.020000
v 0.600000 -0.600000 -1.020000
v -0.600000 -0.600000 -1.020000
v -0.600000 0.600000 -1.020000
v 0.600000 0.600000 -1.020000
v 1.010000 1.000000 1.000000
v 1.010000 -1.000000 1.000000
v 1.010000 1.000000 -1.000000
v 1.010000 -1.000000 -1.000000
v -1.010000 1.000000 1.000000
v -1.010000 -1.000000 1.000000
v -1.010000 1.000000 -1.000000
v -1.010000 -1.000000 -1.000000
v -1.000000 1.000000 1.010000
v -1.000000 -1.000000 1.010000
v 1.000000 1.000000 1.010000
v 1.000000 -1.000000 1.010000
v -1.000000 1.000000 -1.010000
v -1.000000 -1.000000 -1.010000
v 1.000000 1.000000 -1.010000
v 1.000000 -1.000000 -1.010000
vt 0.000000 0.000000
vt 1.000000 0.000000
vt 1.000000 1.000000
vt 0.000000 1.000000
vt 0.000000 0.000000
vt 1.000000 0.000000
vt 1.000000 1.000000
vt 0.000000 1.000000
vt 0.000000 0.000000
vt 1.000000 0.000000
vt 1.000000 1.000000
vt 0.000000 1.000000
vt 0.000000 0.000000
vt 1.000000 0.000000
vt 1.000000 1.000000
vt 0.000000 1.000000
vt 0.000000 0.000000
vt 1.000000 0.000000
vt 1.000000 1.000000
vt 0.000000 1.000000
vt 0.375000 0.000000
vt 0.625000 0.000000
vt 0.625000 0.250000
vt 0.375000 0.250000
vt 0.625000 0.500000
vt 0.375000 0.500000
vt 0.625000 0.750000
vt 0.375000 0.750000
vt 0.625000 1.000000
vt 0.375000 1.000000
vt 0.125000 0.500000
vt 0.125000 0.750000
vt 0.875000 0.500000
vt 0.875000 0.750000
vt 0.625000 0.500000
vt 0.875000 0.500000
vt 0.875000 0.750000
vt 0.625000 0.750000
vt 0.375000 0.750000
vt 0.625000 1.000000
vt 0.375000 1.000000
vt 0.375000 0.000000
vt 0.625000 0.000000
vt 0.625000 0.250000
vt 0.375000 0.250000
vt 0.125000 0.500000
vt 0.375000 0.500000
vt 0.125000 0.750000
vt 0.375000 0.000000
vt 0.625000 0.000000
vt 0.625000 0.250000
vt 0.375000 0.250000
vt 0.625000 0.500000
vt 0.375000 0.500000
vt 0.625000 0.750000
vt 0.375000 0.750000
vt 0.625000 1.000000
vt 0.375000 1.000000
vt 0.125000 0.500000
vt 0.125000 0.750000
vt 0.875000 0.500000
vt 0.875000 0.750000
vt 0.375000 0.000000
vt 0.625000 0.000000
vt 0.625000 0.250000
vt 0.375000 0.250000
vt 0.625000 0.500000
vt 0.375000 0.500000
vt 0.625000 0.750000
vt 0.375000 0.750000
vt 0.625000 1.000000
vt 0.375000 1.000000
vt 0.125000 0.500000
vt 0.125000 0.750000
vt 0.875000 0.500000
vt 0.875000 0.750000
vt 0.375000 0.000000
vt 0.625000 0.000000
vt 0.625000 0.250000
vt 0.375000 0.250000
vt 0.625000 0.500000
vt 0.375000 0.500000
vt 0.625000 0.750000
vt 0.375000 0.750000
vt 0.625000 1.000000
vt 0.375000 1.000000
vt 0.125000 0.500000
vt 0.125000 0.750000
vt 0.875000 0.500000
vt 0.875000 0.750000
vt 0.375000 0.000000
vt 0.625000 0.000000
vt 0.625000 0.250000
vt 0.375000 0.250000
vt 0.625000 0.500000
vt 0.375000 0.500000
vt 0.625000 0.750000
vt 0.375000 0.750000
vt 0.625000 1.000000
vt 0.375000 1.000000
vt 0.125000 0.500000
vt 0.125000 0.750000
vt 0.875000 0.500000
vt 0.875000 0.750000
vt 0.375000 0.000000
vt 0.625000 0.000000
vt 0.625000 0.250000
vt 0.375000 0.250000
vt 0.625000 0.500000
vt 0.375000 0.500000
vt 0.625000 0.750000
vt 0.375000 0.750000
vt 0.625000 1.000000
vt 0.375000 1.000000
vt 0.125000 0.500000
vt 0.125000 0.750000
vt 0.875000 0.500000
vt 0.875000 0.750000
vt 0.375000 0.000000
vt 0.625000 0.000000
vt 0.625000 0.250000
vt 0.375000 0.250000
vt 0.625000 0.500000
vt 0.375000 0.500000
vt 0.625000 0.750000
vt 0.375000 0.750000
vt 0.625000 1.000000
vt 0.375000 1.000000
vt 0.125000 0.500000
vt 0.125000 0.750000
vt 0.875000 0.500000
vt 0.875000 0.750000
vt 0.375000 0.000000
vt 0.625000 0.000000
vt 0.625000 0.250000
vt 0.375000 0.250000
vt 0.625000 0.500000
vt 0.375000 0.500000
vt 0.625000 0.750000
vt 0.375000 0.750000
vt 0.625000 1.000000
vt 0.375000 1.000000
vt 0.125000 0.500000
vt 0.125000 0.750000
vt 0.875000 0.500000
vt 0.875000 0.750000
vt 0.375000 0.000000
vt 0.625000 0.000000
vt 0.625000 0.250000
vt 0.375000 0.250000
vt 0.625000 0.500000
vt 0.375000 0.500000
vt 0.625000 0.750000
vt 0.375000 0.750000
vt 0.625000 1.000000
vt 0.375000 1.000000
vt 0.125000 0.500000
vt 0.125000 0.750000
vt 0.875000 0.500000
vt 0.875000 0.750000
vt 0.375000 0.000000
vt 0.625000 0.000000
vt 0.625000 0.250000
vt 0.375000 0.250000
vt 0.625000 0.500000
vt 0.375000 0.500000
vt 0.625000 0.750000
vt 0.375000 0.750000
vt 0.625000 1.000000
vt 0.375000 1.000000
vt 0.125000 0.500000
vt 0.125000 0.750000
vt 0.875000 0.500000
vt 0.875000 0.750000
vt 0.375000 0.000000
vt 0.625000 0.000000
vt 0.625000 0.250000
vt 0.375000 0.250000
vt 0.625000 0.500000
vt 0.375000 0.500000
vt 0.625000 0.750000
vt 0.375000 0.750000
vt 0.625000 1.000000
vt 0.375000 1.000000
vt 0.125000 0.500000
vt 0.125000 0.750000
vt 0.875000 0.500000
vt 0.875000 0.750000
vt 0.375000 0.000000
vt 0.625000 0.000000
vt 0.625000 0.250000
vt 0.375000 0.250000
vt 0.625000 0.500000
vt 0.375000 0.500000
vt 0.625000 0.750000
vt 0.375000 0.750000
vt 0.625000 1.000000
vt 0.375000 1.000000
vt 0.125000 0.500000
vt 0.125000 0.750000
vt 0.875000 0.500000
vt 0.875000 0.750000
vt 0.375000 0.000000
vt 0.625000 0.000000
vt 0.625000 0.250000
vt 0.375000 0.250000
vt 0.625000 0.500000
vt 0.375000 0.500000
vt 0.625000 0.750000
vt 0.375000 0.750000
vt 0.625000 1.000000
vt 0.375000 1.000000
vt 0.125000 0.500000
vt 0.125000 0.750000
vt 0.875000 0.500000
vt 0.875000 0.750000
vt 0.375000 0.000000
vt 0.625000 0.000000
vt 0.625000 0.250000
vt 0.375000 0.250000
vt 0.625000 0.500000
vt 0.375000 0.500000
vt 0.625000 0.750000
vt 0.375000 0.750000
vt 0.625000 1.000000
vt 0.375000 1.000000
vt 0.125000 0.500000
vt 0.125000 0.750000
vt 0.875000 0.500000
vt 0.875000 0.750000
vt 0.375000 0.000000
vt 0.625000 0.000000
vt 0.625000 0.250000
vt 0.375000 0.250000
vt 0.625000 0.500000
vt 0.375000 0.500000
vt 0.625000 0.750000
vt 0.375000 0.750000
vt 0.625000 1.000000
vt 0.375000 1.000000
vt 0.125000 0.500000
vt 0.125000 0.750000
vt 0.875000 0.500000
vt 0.875000 0.750000
vt 0.375000 0.000000
vt 0.625000 0.000000
vt 0.625000 0.250000
vt 0.375000 0.250000
vt 0.625000 0.500000
vt 0.375000 0.500000
vt 0.625000 0.750000
vt 0.375000 0.750000
vt 0.625000 1.000000
vt 0.375000 1.000000
vt 0.125000 0.500000
vt 0.125000 0.750000
vt 0.875000 0.500000
vt 0.875000 0.750000
vt 0.375000 0.000000
vt 0.625000 0.000000
vt 0.625000 0.250000
vt 0.375000 0.250000
vt 0.625000 0.500000
vt 0.375000 0.500000
vt 0.625000 0.750000
vt 0.375000 0.750000
vt 0.625000 1.000000
vt 0.375000 1.000000
vt 0.125000 0.500000
vt 0.125000 0.750000
vt 0.875000 0.500000
vt 0.875000 0.750000
vt 0.375000 0.000000
vt 0.625000 0.000000
vt 0.625000 0.250000
vt 0.375000 0.250000
vt 0.625000 0.500000
vt 0.375000 0.500000
vt 0.625000 0.750000
vt 0.375000 0.750000
vt 0.625000 1.000000
vt 0.375000 1.000000
vt 0.125000 0.500000
vt 0.125000 0.750000
vt 0.875000 0.500000
vt 0.875000 0.750000
vt 0.375000 0.000000
vt 0.625000 0.000000
vt 0.625000 0.250000
vt 0.375000 0.250000
vt 0.625000 0.500000
vt 0.375000 0.500000
vt 0.625000 0.750000
vt 0.375000 0.750000
vt 0.625000 1.000000
vt 0.375000 1.000000
vt 0.125000 0.500000
vt 0.125000 0.750000
vt 0.875000 0.500000
vt 0.875000 0.750000
vt 0.375000 0.000000
vt 0.625000 0.000000
vt 0.625000 0.250000
vt 0.375000 0.250000
vt 0.625000 0.500000
vt 0.375000 0.500000
vt 0.625000 0.750000
vt 0.375000 0.750000
vt 0.625000 1.000000
vt 0.375000 1.000000
vt 0.125000 0.500000
vt 0.125000 0.750000
vt 0.875000 0.500000
vt 0.875000 0.750000
vt 0.375000 0.000000
vt 0.625000 0.000000
vt 0.625000 0.250000
vt 0.375000 0.250000
vt 0.625000 0.500000
vt 0.375000 0.500000
vt 0.625000 0.750000
vt 0.375000 0.750000
vt 0.625000 1.000000
vt 0.375000 1.000000
vt 0.125000 0.500000
vt 0.125000 0.750000
vt 0.875000 0.500000
vt 0.875000 0.750000
vt 0.000000 0.000000
vt 1.000000 0.000000
vt 1.000000 1.000000
vt 0.000000 1.000000
vt 0.000000 0.000000
vt 1.000000 0.000000
vt 1.000000 1.000000
vt 0.000000 1.000000
vt 0.000000 0.000000
vt 1.000000 0.000000
vt 1.000000 1.000000
vt 0.000000 1.000000
vt 0.000000 0.000000
vt 1.000000 0.000000
vt 1.000000 1.000000
vt 0.000000 1.000000
vt 0.000000 0.000000
vt 1.000000 0.000000
vt 1.000000 1.000000
vt 0.000000 1.000000
vt 0.000000 0.000000
vt 1.000000 0.000000
vt 1.000000 1.000000
vt 0.000000 1.000000
vt 0.000000 0.000000
vt 1.000000 0.000000
vt 1.000000 1.000000
vt 0.000000 1.000000
vn -1.0000 0.0000 0.0000
vn 1.0000 0.0000 0.0000
vn 0.0000 -0.0000 1.0000
vn 0.0000 0.0000 -1.0000
vn 0.0000 -1.0000 -0.0000
vn 0.0000 1.0000 0.0000
usemtl (null)
s 1
f 1/1/1 2/2/1 3/3/1 4/4/1
f 5/5/2 6/6/2 7/7/2 8/8/2
f 9/9/3 10/10/3 11/11/3 12/12/3
f 13/13/4 14/14/4 15/15/4 16/16/4
usemtl Material.005
s off
f 209/17/2 210/18/2 212/19/2 211/20/2
s 1
f 17/21/1 18/22/1 19/23/1 20/24/1
f 20/24/4 19/23/4 21/25/4 22/26/4
f 22/26/2 21/25/2 23/27/2 24/28/2
f 24/28/3 23/27/3 18/29/3 17/30/3
f 20/31/5 22/26/5 24/28/5 17/32/5
f 21/25/6 19/33/6 18/34/6 23/27/6
usemtl Material.006
f 25/35/6 26/36/6 27/37/6 28/38/6
f 29/39/3 28/38/3 27/40/3 30/41/3
f 30/42/1 27/43/1 26/44/1 31/45/1
f 31/46/5 32/47/5 29/39/5 30/48/5
f 32/47/2 25/35/2 28/38/2 29/39/2
f 31/45/4 26/44/4 25/35/4 32/47/4
f 33/49/1 34/50/1 35/51/1 36/52/1
f 36/52/4 35/51/4 37/53/4 38/54/4
f 38/54/2 37/53/2 39/55/2 40/56/2
f 40/56/3 39/55/3 34/57/3 33/58/3
f 36/59/5 38/54/5 40/56/5 33/60/5
f 37/53/6 35/61/6 34/62/6 39/55/6
f 41/63/1 42/64/1 43/65/1 44/66/1
f 44/66/4 43/65/4 45/67/4 46/68/4
f 46/68/2 45/67/2 47/69/2 48/70/2
f 48/70/3 47/69/3 42/71/3 41/72/3
f 44/73/5 46/68/5 48/70/5 41/74/5
f 45/67/6 43/75/6 42/76/6 47/69/6
f 49/77/1 50/78/1 51/79/1 52/80/1
f 52/80/4 51/79/4 53/81/4 54/82/4
f 54/82/2 53/81/2 55/83/2 56/84/2
f 56/84/3 55/83/3 50/85/3 49/86/3
f 52/87/5 54/82/5 56/84/5 49/88/5
f 53/81/6 51/89/6 50/90/6 55/83/6
f 57/91/1 58/92/1 59/93/1 60/94/1
f 60/94/4 59/93/4 61/95/4 62/96/4
f 62/96/2 61/95/2 63/97/2 64/98/2
f 64/98/3 63/97/3 58/99/3 57/100/3
f 60/101/5 62/96/5 64/98/5 57/102/5
f 61/95/6 59/103/6 58/104/6 63/97/6
f 65/105/1 66/106/1 67/107/1 68/108/1
f 68/108/4 67/107/4 69/109/4 70/110/4
f 70/110/2 69/109/2 71/111/2 72/112/2
f 72/112/3 71/111/3 66/113/3 65/114/3
f 68/115/5 70/110/5 72/112/5 65/116/5
f 69/109/6 67/117/6 66/118/6 71/111/6
f 73/119/1 74/120/1 75/121/1 76/122/1
f 76/122/4 75/121/4 77/123/4 78/124/4
f 78/124/2 77/123/2 79/125/2 80/126/2
f 80/126/3 79/125/3 74/127/3 73/128/3
f 76/129/5 78/124/5 80/126/5 73/130/5
f 77/123/6 75/131/6 74/132/6 79/125/6
f 81/133/1 82/134/1 83/135/1 84/136/1
f 84/136/4 83/135/4 85/137/4 86/138/4
f 86/138/2 85/137/2 87/139/2 88/140/2
f 88/140/3 87/139/3 82/141/3 81/142/3
f 84/143/5 86/138/5 88/140/5 81/144/5
f 85/137/6 83/145/6 82/146/6 87/139/6
f 89/147/1 90/148/1 91/149/1 92/150/1
f 92/150/4 91/149/4 93/151/4 94/152/4
f 94/152/2 93/151/2 95/153/2 96/154/2
f 96/154/3 95/153/3 90/155/3 89/156/3
f 92/157/5 94/152/5 96/154/5 89/158/5
f 93/151/6 91/159/6 90/160/6 95/153/6
f 97/161/1 98/162/1 99/163/1 100/164/1
f 100/164/4 99/163/4 101/165/4 102/166/4
f 102/166/2 101/165/2 103/167/2 104/168/2
f 104/168/3 103/167/3 98/169/3 97/170/3
f 100/171/5 102/166/5 104/168/5 97/172/5
f 101/165/6 99/173/6 98/174/6 103/167/6
f 105/175/1 106/176/1 107/177/1 108/178/1
f 108/178/4 107/177/4 109/179/4 110/180/4
f 110/180/2 109/179/2 111/181/2 112/182/2
f 112/182/3 111/181/3 106/183/3 105/184/3
f 108/185/5 110/180/5 112/182/5 105/186/5
f 109/179/6 107/187/6 106/188/6 111/181/6
f 113/189/1 114/190/1 115/191/1 116/192/1
f 116/192/4 115/191/4 117/193/4 118/194/4
f 118/194/2 117/193/2 119/195/2 120/196/2
f 120/196/3 119/195/3 114/197/3 113/198/3
f 116/199/5 118/194/5 120/196/5 113/200/5
f 117/193/6 115/201/6 114/202/6 119/195/6
f 121/203/1 122/204/1 123/205/1 124/206/1
f 124/206/6 123/205/6 125/207/6 126/208/6
f 126/208/2 125/207/2 127/209/2 128/210/2
f 128/210/5 127/209/5 122/211/5 121/212/5
f 124/213/4 126/208/4 128/210/4 121/214/4
f 125/207/3 123/215/3 122/216/3 127/209/3
f 129/217/1 130/218/1 131/219/1 132/220/1
f 132/220/4 131/219/4 133/221/4 134/222/4
f 134/222/2 133/221/2 135/223/2 136/224/2
f 136/224/3 135/223/3 130/225/3 129/226/3
f 132/227/5 134/222/5 136/224/5 129/228/5
f 133/221/6 131/229/6 130/230/6 135/223/6
f 137/231/1 138/232/1 139/233/1 140/234/1
f 140/234/6 139/233/6 141/235/6 142/236/6
f 142/236/2 141/235/2 143/237/2 144/238/2
f 144/238/5 143/237/5 138/239/5 137/240/5
f 140/241/4 142/236/4 144/238/4 137/242/4
f 141/235/3 139/243/3 138/244/3 143/237/3
f 145/245/1 146/246/1 147/247/1 148/248/1
f 148/248/6 147/247/6 149/249/6 150/250/6
f 150/250/2 149/249/2 151/251/2 152/252/2
f 152/252/5 151/251/5 146/253/5 145/254/5
f 148/255/4 150/250/4 152/252/4 145/256/4
f 149/249/3 147/257/3 146/258/3 151/251/3
f 153/259/1 154/260/1 155/261/1 156/262/1
f 156/262/6 155/261/6 157/263/6 158/264/6
f 158/264/2 157/263/2 159/265/2 160/266/2
f 160/266/5 159/265/5 154/267/5 153/268/5
f 156/269/4 158/264/4 160/266/4 153/270/4
f 157/263/3 155/271/3 154/272/3 159/265/3
f 161/273/6 162/274/6 163/275/6 164/276/6
f 164/276/4 163/275/4 165/277/4 166/278/4
f 166/278/5 165/277/5 167/279/5 168/280/5
f 168/280/3 167/279/3 162/281/3 161/282/3
f 164/283/1 166/278/1 168/280/1 161/284/1
f 165/277/2 163/285/2 162/286/2 167/279/2
f 169/287/6 170/288/6 171/289/6 172/290/6
f 172/290/4 171/289/4 173/291/4 174/292/4
f 174/292/5 173/291/5 175/293/5 176/294/5
f 176/294/3 175/293/3 170/295/3 169/296/3
f 172/297/1 174/292/1 176/294/1 169/298/1
f 173/291/2 171/299/2 170/300/2 175/293/2
f 177/301/6 178/302/6 179/303/6 180/304/6
f 180/304/4 179/303/4 181/305/4 182/306/4
f 182/306/5 181/305/5 183/307/5 184/308/5
f 184/308/3 183/307/3 178/309/3 177/310/3
f 180/311/1 182/306/1 184/308/1 177/312/1
f 181/305/2 179/313/2 178/314/2 183/307/2
f 185/315/6 186/316/6 187/317/6 188/318/6
f 188/318/4 187/317/4 189/319/4 190/320/4
f 190/320/5 189/319/5 191/321/5 192/322/5
f 192/322/3 191/321/3 186/323/3 185/324/3
f 188/325/1 190/320/1 192/322/1 185/326/1
f 189/319/2 187/327/2 186/328/2 191/321/2
usemtl clock.001
s off
f 193/329/2 194/330/2 195/331/2 196/332/2
f 197/333/2 198/334/2 199/335/2 200/336/2
f 201/337/4 202/338/4 203/339/4 204/340/4
f 205/341/4 206/342/4 207/343/4 208/344/4
usemtl Material.001
f 213/345/2 214/346/2 216/347/2 215/348/2
usemtl Material.002
f 217/349/3 218/350/3 220/351/3 219/352/3
usemtl Material.003
f 221/353/3 222/354/3 224/355/3 223/356/3
