# Blender 3.5.1
# www.blender.org
mtllib BonusScore.mtl
o bonusTime
v 1.002000 -0.500000 -0.500000
v 1.002000 -0.500000 0.500000
v 1.002000 0.500000 -0.500000
v 1.002000 0.500000 0.500000
v -1.002000 -0.500000 0.500000
v -1.002000 -0.500000 -0.500000
v -1.002000 0.500000 0.500000
v -1.002000 0.500000 -0.500000
v -0.500000 -0.500000 -1.002000
v 0.500000 -0.500000 -1.002000
v -0.500000 0.500000 -1.002000
v 0.500000 0.500000 -1.002000
v 0.500000 -0.500000 1.002000
v -0.500000 -0.500000 1.002000
v 0.500000 0.500000 1.002000
v -0.500000 0.500000 1.002000
v -1.001000 -1.001000 1.001000
v -1.001000 1.001000 1.001000
v -1.001000 -1.001000 -1.001000
v -1.001000 1.001000 -1.001000
v 1.001000 -1.001000 1.001000
v 1.001000 1.001000 1.001000
v 1.001000 -1.001000 -1.001000
v 1.001000 1.001000 -1.001000
v 1.000000 1.000000 -1.000000
v 1.000000 -1.000000 -1.000000
v 1.000000 1.000000 1.000000
v 1.000000 -1.000000 1.000000
v -1.000000 1.000000 -1.000000
v -1.000000 -1.000000 -1.000000
v -1.000000 1.000000 1.000000
v -1.000000 -1.000000 1.000000
v 0.600000 0.600000 1.400000
v 0.600000 1.400000 1.400000
v 0.600000 0.600000 0.600000
v 0.600000 1.400000 0.600000
v 1.400000 0.600000 1.400000
v 1.400000 1.400000 1.400000
v 1.400000 0.600000 0.600000
v 1.400000 1.400000 0.600000
v -1.400000 0.600000 -0.600000
v -1.400000 1.400000 -0.600000
v -1.400000 0.600000 -1.400000
v -1.400000 1.400000 -1.400000
v -0.600000 0.600000 -0.600000
v -0.600000 1.400000 -0.600000
v -0.600000 0.600000 -1.400000
v -0.600000 1.400000 -1.400000
v 0.600000 0.600000 -0.600000
v 0.600000 1.400000 -0.600000
v 0.600000 0.600000 -1.400000
v 0.600000 1.400000 -1.400000
v 1.400000 0.600000 -0.600000
v 1.400000 1.400000 -0.600000
v 1.400000 0.600000 -1.400000
v 1.400000 1.400000 -1.400000
v -1.400000 0.600000 1.400000
v -1.400000 1.400000 1.400000
v -1.400000 0.600000 0.600000
v -1.400000 1.400000 0.600000
v -0.600000 0.600000 1.400000
v -0.600000 1.400000 1.400000
v -0.600000 0.600000 0.600000
v -0.600000 1.400000 0.600000
v -1.400000 -1.400000 1.400000
v -1.400000 -0.600000 1.400000
v -1.400000 -1.400000 0.600000
v -1.400000 -0.600000 0.600000
v -0.600000 -1.400000 1.400000
v -0.600000 -0.600000 1.400000
v -0.600000 -1.400000 0.600000
v -0.600000 -0.600000 0.600000
v -1.400000 -1.400000 -0.600000
v -1.400000 -0.600000 -0.600000
v -1.400000 -1.400000 -1.400000
v -1.400000 -0.600000 -1.400000
v -0.600000 -1.400000 -0.600000
v -0.600000 -0.600000 -0.600000
v -0.600000 -1.400000 -1.400000
v -0.600000 -0.600000 -1.400000
v 0.600000 -1.400000 -0.600000
v 0.600000 -0.600000 -0.600000
v 0.600000 -1.400000 -1.400000
v 0.600000 -0.600000 -1.400000
v 1.400000 -1.400000 -0.600000
v 1.400000 -0.600000 -0.600000
v 1.400000 -1.400000 -1.400000
v 1.400000 -0.600000 -1.400000
v 0.600000 -1.400000 1.400000
v 0.600000 -0.600000 1.400000
v 0.600000 -1.400000 0.600000
v 0.600000 -0.600000 0.600000
v 1.400000 -1.400000 1.400000
v 1.400000 -0.600000 1.400000
v 1.400000 -1.400000 0.600000
v 1.400000 -0.600000 0.600000
v 0.900000 -0.800000 1.100000
v 0.900000 0.800000 1.100000
v 0.900000 -0.800000 0.900000
v 0.900000 0.800000 0.900000
v 1.100000 -0.800000 1.100000
v 1.100000 0.800000 1.100000
v 1.100000 -0.800000 0.900000
v 1.100000 0.800000 0.900000
v -1.100000 -0.800000 -0.900000
v -1.100000 0.800000 -0.900000
v -1.100000 -0.800000 -1.100000
v -1.100000 0.800000 -1.100000
v -0.900000 -0.800000 -0.900000
v -0.900000 0.800000 -0.900000
v -0.900000 -0.800000 -1.100000
v -0.900000 0.800000 -1.100000
v 0.900000 -0.800000 -0.900000
v 0.900000 0.800000 -0.900000
v 0.900000 -0.800000 -1.100000
v 0.900000 0.800000 -1.100000
v 1.100000 -0.800000 -0.900000
v 1.100000 0.800000 -0.900000
v 1.100000 -0.800000 -1.100000
v 1.100000 0.800000 -1.100000
v -1.100000 -1.100000 -0.800000
v -1.100000 -1.100000 0.800000
v -1.100000 -0.900000 -0.800000
v -1.100000 -0.900000 0.800000
v -0.900000 -1.100000 -0.800000
v -0.900000 -1.100000 0.800000
v -0.900000 -0.900000 -0.800000
v -0.900000 -0.900000 0.800000
v -1.100000 -0.800000 1.100000
v -1.100000 0.800000 1.100000
v -1.100000 -0.800000 0.900000
v -1.100000 0.800000 0.900000
v -0.900000 -0.800000 1.100000
v -0.900000 0.800000 1.100000
v -0.900000 -0.800000 0.900000
v -0.900000 0.800000 0.900000
v 0.900000 0.900000 -0.800000
v 0.900000 0.900000 0.800000
v 0.900000 1.100000 -0.800000
v 0.900000 1.100000 0.800000
v 1.100000 0.900000 -0.800000
v 1.100000 0.900000 0.800000
v 1.100000 1.100000 -0.800000
v 1.100000 1.100000 0.800000
v 0.900000 -1.100000 -0.800000
v 0.900000 -1.100000 0.800000
v 0.900000 -0.900000 -0.800000
v 0.900000 -0.900000 0.800000
v 1.100000 -1.100000 -0.800000
v 1.100000 -1.100000 0.800000
v 1.100000 -0.900000 -0.800000
v 1.100000 -0.900000 0.800000
v -1.100000 0.900000 -0.800000
v -1.100000 0.900000 0.800000
v -1.100000 1.100000 -0.800000
v -1.100000 1.100000 0.800000
v -0.900000 0.900000 -0.800000
v -0.900000 0.900000 0.800000
v -0.900000 1.100000 -0.800000
v -0.900000 1.100000 0.800000
v -0.800000 1.100000 -0.900000
v 0.800000 1.100000 -0.900000
v -0.800000 1.100000 -1.100000
v 0.800000 1.100000 -1.100000
v -0.800000 0.900000 -0.900000
v 0.800000 0.900000 -0.900000
v -0.800000 0.900000 -1.100000
v 0.800000 0.900000 -1.100000
v -0.800000 -0.900000 -0.900000
v 0.800000 -0.900000 -0.900000
v -0.800000 -0.900000 -1.100000
v 0.800000 -0.900000 -1.100000
v -0.800000 -1.100000 -0.900000
v 0.800000 -1.100000 -0.900000
v -0.800000 -1.100000 -1.100000
v 0.800000 -1.100000 -1.100000
v -0.800000 1.100000 1.100000
v 0.800000 1.100000 1.100000
v -0.800000 1.100000 0.900000
v 0.800000 1.100000 0.900000
v -0.800000 0.900000 1.100000
v 0.800000 0.900000 1.100000
v -0.800000 0.900000 0.900000
v 0.800000 0.900000 0.900000
v -0.800000 -0.900000 1.100000
v 0.800000 -0.900000 1.100000
v -0.800000 -0.900000 0.900000
v 0.800000 -0.900000 0.900000
v -0.800000 -1.100000 1.100000
v 0.800000 -1.100000 1.100000
v -0.800000 -1.100000 0.900000
v 0.800000 -1.100000 0.900000
vn -1.0000 -0.0000 -0.0000
vn 1.0000 -0.0000 -0.0000
vn -0.0000 -0.0000 1.0000
vn -0.0000 -0.0000 -1.0000
vn -0.0000 -1.0000 -0.0000
vn -0.0000 1.0000 -0.0000
vt 0.000000 0.000000
vt 1.000000 0.000000
vt 0.000000 1.000000
vt 1.000000 1.000000
vt 0.000000 0.000000
vt 1.000000 0.000000
vt 0.000000 1.000000
vt 1.000000 1.000000
vt 0.000000 0.000000
vt 1.000000 0.000000
vt 0.000000 1.000000
vt 1.000000 1.000000
vt 0.000000 0.000000
vt 1.000000 0.000000
vt 0.000000 1.000000
vt 1.000000 1.000000
vt 0.375000 0.000000
vt 0.375000 1.000000
vt 0.125000 0.750000
vt 0.625000 0.000000
vt 0.625000 1.000000
vt 0.875000 0.750000
vt 0.375000 0.250000
vt 0.125000 0.500000
vt 0.625000 0.250000
vt 0.875000 0.500000
vt 0.375000 0.750000
vt 0.625000 0.750000
vt 0.375000 0.500000
vt 0.625000 0.500000
vt 0.625000 0.500000
vt 0.375000 0.500000
vt 0.625000 0.750000
vt 0.375000 0.750000
vt 0.875000 0.500000
vt 0.625000 0.250000
vt 0.125000 0.500000
vt 0.375000 0.250000
vt 0.875000 0.750000
vt 0.625000 1.000000
vt 0.625000 0.000000
vt 0.375000 1.000000
vt 0.375000 0.000000
vt 0.125000 0.750000
vt 0.375000 0.000000
vt 0.375000 1.000000
vt 0.125000 0.750000
vt 0.625000 0.000000
vt 0.625000 1.000000
vt 0.875000 0.750000
vt 0.375000 0.250000
vt 0.125000 0.500000
vt 0.625000 0.250000
vt 0.875000 0.500000
vt 0.375000 0.750000
vt 0.625000 0.750000
vt 0.375000 0.500000
vt 0.625000 0.500000
vt 0.375000 0.000000
vt 0.375000 1.000000
vt 0.125000 0.750000
vt 0.625000 0.000000
vt 0.625000 1.000000
vt 0.875000 0.750000
vt 0.375000 0.250000
vt 0.125000 0.500000
vt 0.625000 0.250000
vt 0.875000 0.500000
vt 0.375000 0.750000
vt 0.625000 0.750000
vt 0.375000 0.500000
vt 0.625000 0.500000
vt 0.375000 0.000000
vt 0.375000 1.000000
vt 0.125000 0.750000
vt 0.625000 0.000000
vt 0.625000 1.000000
vt 0.875000 0.750000
vt 0.375000 0.250000
vt 0.125000 0.500000
vt 0.625000 0.250000
vt 0.875000 0.500000
vt 0.375000 0.750000
vt 0.625000 0.750000
vt 0.375000 0.500000
vt 0.625000 0.500000
vt 0.375000 0.000000
vt 0.375000 1.000000
vt 0.125000 0.750000
vt 0.625000 0.000000
vt 0.625000 1.000000
vt 0.875000 0.750000
vt 0.375000 0.250000
vt 0.125000 0.500000
vt 0.625000 0.250000
vt 0.875000 0.500000
vt 0.375000 0.750000
vt 0.625000 0.750000
vt 0.375000 0.500000
vt 0.625000 0.500000
vt 0.375000 0.000000
vt 0.375000 1.000000
vt 0.125000 0.750000
vt 0.625000 0.000000
vt 0.625000 1.000000
vt 0.875000 0.750000
vt 0.375000 0.250000
vt 0.125000 0.500000
vt 0.625000 0.250000
vt 0.875000 0.500000
vt 0.375000 0.750000
vt 0.625000 0.750000
vt 0.375000 0.500000
vt 0.625000 0.500000
vt 0.375000 0.000000
vt 0.375000 1.000000
vt 0.125000 0.750000
vt 0.625000 0.000000
vt 0.625000 1.000000
vt 0.875000 0.750000
vt 0.375000 0.250000
vt 0.125000 0.500000
vt 0.625000 0.250000
vt 0.875000 0.500000
vt 0.375000 0.750000
vt 0.625000 0.750000
vt 0.375000 0.500000
vt 0.625000 0.500000
vt 0.375000 0.000000
vt 0.375000 1.000000
vt 0.125000 0.750000
vt 0.625000 0.000000
vt 0.625000 1.000000
vt 0.875000 0.750000
vt 0.375000 0.250000
vt 0.125000 0.500000
vt 0.625000 0.250000
vt 0.875000 0.500000
vt 0.375000 0.750000
vt 0.625000 0.750000
vt 0.375000 0.500000
vt 0.625000 0.500000
vt 0.375000 0.000000
vt 0.375000 1.000000
vt 0.125000 0.750000
vt 0.625000 0.000000
vt 0.625000 1.000000
vt 0.875000 0.750000
vt 0.375000 0.250000
vt 0.125000 0.500000
vt 0.625000 0.250000
vt 0.875000 0.500000
vt 0.375000 0.750000
vt 0.625000 0.750000
vt 0.375000 0.500000
vt 0.625000 0.500000
vt 0.375000 0.000000
vt 0.375000 1.000000
vt 0.125000 0.750000
vt 0.625000 0.000000
vt 0.625000 1.000000
vt 0.875000 0.750000
vt 0.375000 0.250000
vt 0.125000 0.500000
vt 0.625000 0.250000
vt 0.875000 0.500000
vt 0.375000 0.750000
vt 0.625000 0.750000
vt 0.375000 0.500000
vt 0.625000 0.500000
vt 0.375000 0.000000
vt 0.375000 1.000000
vt 0.125000 0.750000
vt 0.625000 0.000000
vt 0.625000 1.000000
vt 0.875000 0.750000
vt 0.375000 0.250000
vt 0.125000 0.500000
vt 0.625000 0.250000
vt 0.875000 0.500000
vt 0.375000 0.750000
vt 0.625000 0.750000
vt 0.375000 0.500000
vt 0.625000 0.500000
vt 0.375000 0.000000
vt 0.375000 1.000000
vt 0.125000 0.750000
vt 0.625000 0.000000
vt 0.625000 1.000000
vt 0.875000 0.750000
vt 0.375000 0.250000
vt 0.125000 0.500000
vt 0.625000 0.250000
vt 0.875000 0.500000
vt 0.375000 0.750000
vt 0.625000 0.750000
vt 0.375000 0.500000
vt 0.625000 0.500000
vt 0.375000 0.000000
vt 0.375000 1.000000
vt 0.125000 0.750000
vt 0.625000 0.000000
vt 0.625000 1.000000
vt 0.875000 0.750000
vt 0.375000 0.250000
vt 0.125000 0.500000
vt 0.625000 0.250000
vt 0.875000 0.500000
vt 0.375000 0.750000
vt 0.625000 0.750000
vt 0.375000 0.500000
vt 0.625000 0.500000
vt 0.375000 0.000000
vt 0.375000 1.000000
vt 0.125000 0.750000
vt 0.625000 0.000000
vt 0.625000 1.000000
vt 0.875000 0.750000
vt 0.375000 0.250000
vt 0.125000 0.500000
vt 0.625000 0.250000
vt 0.875000 0.500000
vt 0.375000 0.750000
vt 0.625000 0.750000
vt 0.375000 0.500000
vt 0.625000 0.500000
vt 0.375000 0.000000
vt 0.375000 1.000000
vt 0.125000 0.750000
vt 0.625000 0.000000
vt 0.625000 1.000000
vt 0.875000 0.750000
vt 0.375000 0.250000
vt 0.125000 0.500000
vt 0.625000 0.250000
vt 0.875000 0.500000
vt 0.375000 0.750000
vt 0.625000 0.750000
vt 0.375000 0.500000
vt 0.625000 0.500000
vt 0.375000 0.000000
vt 0.375000 1.000000
vt 0.125000 0.750000
vt 0.625000 0.000000
vt 0.625000 1.000000
vt 0.875000 0.750000
vt 0.375000 0.250000
vt 0.125000 0.500000
vt 0.625000 0.250000
vt 0.875000 0.500000
vt 0.375000 0.750000
vt 0.625000 0.750000
vt 0.375000 0.500000
vt 0.625000 0.500000
vt 0.375000 0.000000
vt 0.375000 1.000000
vt 0.125000 0.750000
vt 0.625000 0.000000
vt 0.625000 1.000000
vt 0.875000 0.750000
vt 0.375000 0.250000
vt 0.125000 0.500000
vt 0.625000 0.250000
vt 0.875000 0.500000
vt 0.375000 0.750000
vt 0.625000 0.750000
vt 0.375000 0.500000
vt 0.625000 0.500000
vt 0.375000 0.000000
vt 0.375000 1.000000
vt 0.125000 0.750000
vt 0.625000 0.000000
vt 0.625000 1.000000
vt 0.875000 0.750000
vt 0.375000 0.250000
vt 0.125000 0.500000
vt 0.625000 0.250000
vt 0.875000 0.500000
vt 0.375000 0.750000
vt 0.625000 0.750000
vt 0.375000 0.500000
vt 0.625000 0.500000
vt 0.375000 0.000000
vt 0.375000 1.000000
vt 0.125000 0.750000
vt 0.625000 0.000000
vt 0.625000 1.000000
vt 0.875000 0.750000
vt 0.375000 0.250000
vt 0.125000 0.500000
vt 0.625000 0.250000
vt 0.875000 0.500000
vt 0.375000 0.750000
vt 0.625000 0.750000
vt 0.375000 0.500000
vt 0.625000 0.500000
vt 0.375000 0.000000
vt 0.375000 1.000000
vt 0.125000 0.750000
vt 0.625000 0.000000
vt 0.625000 1.000000
vt 0.875000 0.750000
vt 0.375000 0.250000
vt 0.125000 0.500000
vt 0.625000 0.250000
vt 0.875000 0.500000
vt 0.375000 0.750000
vt 0.625000 0.750000
vt 0.375000 0.500000
vt 0.625000 0.500000
vt 0.375000 0.000000
vt 0.375000 1.000000
vt 0.125000 0.750000
vt 0.625000 0.000000
vt 0.625000 1.000000
vt 0.875000 0.750000
vt 0.375000 0.250000
vt 0.125000 0.500000
vt 0.625000 0.250000
vt 0.875000 0.500000
vt 0.375000 0.750000
vt 0.625000 0.750000
vt 0.375000 0.500000
vt 0.625000 0.500000
s 0
usemtl clock.003
f 1/1/1 2/2/1 4/4/1 3/3/1
usemtl clock
f 5/5/2 6/6/2 8/8/2 7/7/2
usemtl clock.001
f 9/9/3 10/10/3 12/12/3 11/11/3
usemtl clock.002
f 13/13/4 14/14/4 16/16/4 15/15/4
usemtl Material.001
f 17/17/1 18/20/1 20/25/1 19/23/1
f 19/23/4 20/25/4 24/30/4 23/29/4
f 23/29/2 24/30/2 22/28/2 21/27/2
f 21/27/3 22/28/3 18/21/3 17/18/3
f 19/24/5 23/29/5 21/27/5 17/19/5
f 24/30/6 20/26/6 18/22/6 22/28/6
usemtl Material
f 25/31/6 29/35/6 31/39/6 27/33/6
f 28/34/3 27/33/3 31/40/3 32/42/3
f 32/43/1 31/41/1 29/36/1 30/38/1
f 30/37/5 26/32/5 28/34/5 32/44/5
f 26/32/2 25/31/2 27/33/2 28/34/2
f 30/38/4 29/36/4 25/31/4 26/32/4
f 33/45/1 34/48/1 36/53/1 35/51/1
f 35/51/4 36/53/4 40/58/4 39/57/4
f 39/57/2 40/58/2 38/56/2 37/55/2
f 37/55/3 38/56/3 34/49/3 33/46/3
f 35/52/5 39/57/5 37/55/5 33/47/5
f 40/58/6 36/54/6 34/50/6 38/56/6
f 41/59/1 42/62/1 44/67/1 43/65/1
f 43/65/4 44/67/4 48/72/4 47/71/4
f 47/71/2 48/72/2 46/70/2 45/69/2
f 45/69/3 46/70/3 42/63/3 41/60/3
f 43/66/5 47/71/5 45/69/5 41/61/5
f 48/72/6 44/68/6 42/64/6 46/70/6
f 49/73/1 50/76/1 52/81/1 51/79/1
f 51/79/4 52/81/4 56/86/4 55/85/4
f 55/85/2 56/86/2 54/84/2 53/83/2
f 53/83/3 54/84/3 50/77/3 49/74/3
f 51/80/5 55/85/5 53/83/5 49/75/5
f 56/86/6 52/82/6 50/78/6 54/84/6
f 57/87/1 58/90/1 60/95/1 59/93/1
f 59/93/4 60/95/4 64/100/4 63/99/4
f 63/99/2 64/100/2 62/98/2 61/97/2
f 61/97/3 62/98/3 58/91/3 57/88/3
f 59/94/5 63/99/5 61/97/5 57/89/5
f 64/100/6 60/96/6 58/92/6 62/98/6
f 65/101/1 66/104/1 68/109/1 67/107/1
f 67/107/4 68/109/4 72/114/4 71/113/4
f 71/113/2 72/114/2 70/112/2 69/111/2
f 69/111/3 70/112/3 66/105/3 65/102/3
f 67/108/5 71/113/5 69/111/5 65/103/5
f 72/114/6 68/110/6 66/106/6 70/112/6
f 73/115/1 74/118/1 76/123/1 75/121/1
f 75/121/4 76/123/4 80/128/4 79/127/4
f 79/127/2 80/128/2 78/126/2 77/125/2
f 77/125/3 78/126/3 74/119/3 73/116/3
f 75/122/5 79/127/5 77/125/5 73/117/5
f 80/128/6 76/124/6 74/120/6 78/126/6
f 81/129/1 82/132/1 84/137/1 83/135/1
f 83/135/4 84/137/4 88/142/4 87/141/4
f 87/141/2 88/142/2 86/140/2 85/139/2
f 85/139/3 86/140/3 82/133/3 81/130/3
f 83/136/5 87/141/5 85/139/5 81/131/5
f 88/142/6 84/138/6 82/134/6 86/140/6
f 89/143/1 90/146/1 92/151/1 91/149/1
f 91/149/4 92/151/4 96/156/4 95/155/4
f 95/155/2 96/156/2 94/154/2 93/153/2
f 93/153/3 94/154/3 90/147/3 89/144/3
f 91/150/5 95/155/5 93/153/5 89/145/5
f 96/156/6 92/152/6 90/148/6 94/154/6
f 97/157/1 98/160/1 100/165/1 99/163/1
f 99/163/4 100/165/4 104/170/4 103/169/4
f 103/169/2 104/170/2 102/168/2 101/167/2
f 101/167/3 102/168/3 98/161/3 97/158/3
f 99/164/5 103/169/5 101/167/5 97/159/5
f 104/170/6 100/166/6 98/162/6 102/168/6
f 105/171/1 106/174/1 108/179/1 107/177/1
f 107/177/4 108/179/4 112/184/4 111/183/4
f 111/183/2 112/184/2 110/182/2 109/181/2
f 109/181/3 110/182/3 106/175/3 105/172/3
f 107/178/5 111/183/5 109/181/5 105/173/5
f 112/184/6 108/180/6 106/176/6 110/182/6
f 113/185/1 114/188/1 116/193/1 115/191/1
f 115/191/4 116/193/4 120/198/4 119/197/4
f 119/197/2 120/198/2 118/196/2 117/195/2
f 117/195/3 118/196/3 114/189/3 113/186/3
f 115/192/5 119/197/5 117/195/5 113/187/5
f 120/198/6 116/194/6 114/190/6 118/196/6
f 121/199/1 122/202/1 124/207/1 123/205/1
f 123/205/6 124/207/6 128/212/6 127/211/6
f 127/211/2 128/212/2 126/210/2 125/209/2
f 125/209/5 126/210/5 122/203/5 121/200/5
f 123/206/4 127/211/4 125/209/4 121/201/4
f 128/212/3 124/208/3 122/204/3 126/210/3
f 129/213/1 130/216/1 132/221/1 131/219/1
f 131/219/4 132/221/4 136/226/4 135/225/4
f 135/225/2 136/226/2 134/224/2 133/223/2
f 133/223/3 134/224/3 130/217/3 129/214/3
f 131/220/5 135/225/5 133/223/5 129/215/5
f 136/226/6 132/222/6 130/218/6 134/224/6
f 137/227/1 138/230/1 140/235/1 139/233/1
f 139/233/6 140/235/6 144/240/6 143/239/6
f 143/239/2 144/240/2 142/238/2 141/237/2
f 141/237/5 142/238/5 138/231/5 137/228/5
f 139/234/4 143/239/4 141/237/4 137/229/4
f 144/240/3 140/236/3 138/232/3 142/238/3
f 145/241/1 146/244/1 148/249/1 147/247/1
f 147/247/6 148/249/6 152/254/6 151/253/6
f 151/253/2 152/254/2 150/252/2 149/251/2
f 149/251/5 150/252/5 146/245/5 145/242/5
f 147/248/4 151/253/4 149/251/4 145/243/4
f 152/254/3 148/250/3 146/246/3 150/252/3
f 153/255/1 154/258/1 156/263/1 155/261/1
f 155/261/6 156/263/6 160/268/6 159/267/6
f 159/267/2 160/268/2 158/266/2 157/265/2
f 157/265/5 158/266/5 154/259/5 153/256/5
f 155/262/4 159/267/4 157/265/4 153/257/4
f 160/268/3 156/264/3 154/260/3 158/266/3
f 161/269/6 162/272/6 164/277/6 163/275/6
f 163/275/4 164/277/4 168/282/4 167/281/4
f 167/281/5 168/282/5 166/280/5 165/279/5
f 165/279/3 166/280/3 162/273/3 161/270/3
f 163/276/1 167/281/1 165/279/1 161/271/1
f 168/282/2 164/278/2 162/274/2 166/280/2
f 169/283/6 170/286/6 172/291/6 171/289/6
f 171/289/4 172/291/4 176/296/4 175/295/4
f 175/295/5 176/296/5 174/294/5 173/293/5
f 173/293/3 174/294/3 170/287/3 169/284/3
f 171/290/1 175/295/1 173/293/1 169/285/1
f 176/296/2 172/292/2 170/288/2 174/294/2
f 177/297/6 178/300/6 180/305/6 179/303/6
f 179/303/4 180/305/4 184/310/4 183/309/4
f 183/309/5 184/310/5 182/308/5 181/307/5
f 181/307/3 182/308/3 178/301/3 177/298/3
f 179/304/1 183/309/1 181/307/1 177/299/1
f 184/310/2 180/306/2 178/302/2 182/308/2
f 185/311/6 186/314/6 188/319/6 187/317/6
f 187/317/4 188/319/4 192/324/4 191/323/4
f 191/323/5 192/324/5 190/322/5 189/321/5
f 189/321/3 190/322/3 186/315/3 185/312/3
f 187/318/1 191/323/1 189/321/1 185/313/1
f 192/324/2 188/320/2 186/316/2 190/322/2
