# Blender v3.2.0 OBJ File: ''
# www.blender.org
mtllib BonusHourglass.mtl
o Face1_Plane
v -1.010000 -0.600000 0.600000
v -1.010000 -0.600000 -0.600000
v -1.010000 0.600000 0.600000
v -1.010000 0.600000 -0.600000
vt 0.000000 0.000000
vt 1.000000 0.000000
vt 1.000000 1.000000
vt 0.000000 1.000000
vn 1.0000 0.0000 -0.0000
usemtl clock.001
s off
f 1/1/1 2/2/1 4/3/1 3/4/1
o Face2_Plane.001
v 1.010000 -0.600000 0.600000
v 1.010000 -0.600000 -0.600000
v 1.010000 0.600000 0.600000
v 1.010000 0.600000 -0.600000
vt 0.000000 0.000000
vt 1.000000 0.000000
vt 1.000000 1.000000
vt 0.000000 1.000000
vn 1.0000 0.0000 -0.0000
usemtl clock.001
s off
f 5/5/2 6/6/2 8/7/2 7/8/2
o Face3_Plane.002
v 0.600000 -0.600000 1.010000
v -0.600000 -0.600000 1.010000
v 0.600000 0.600000 1.010000
v -0.600000 0.600000 1.010000
vt 0.000000 0.000000
vt 1.000000 0.000000
vt 1.000000 1.000000
vt 0.000000 1.000000
vn 0.0000 0.0000 -1.0000
usemtl clock.001
s off
f 9/9/3 10/10/3 12/11/3 11/12/3
o Face4_Plane.003
v 0.600000 -0.600000 -1.010000
v -0.600000 -0.600000 -1.010000
v 0.600000 0.600000 -1.010000
v -0.600000 0.600000 -1.010000
vt 0.000000 0.000000
vt 1.000000 0.000000
vt 1.000000 1.000000
vt 0.000000 1.000000
vn -0.0000 0.0000 -1.0000
usemtl clock.001
s off
f 13/13/4 14/14/4 16/15/4 15/16/4
o bonusTime
v 1.002000 -0.500000 -0.500000
v 1.002000 -0.500000 0.500000
v 1.002000 0.500000 0.500000
v 1.002000 0.500000 -0.500000
v -1.002000 -0.500000 0.500000
v -1.002000 -0.500000 -0.500000
v -1.002000 0.500000 -0.500000
v -1.002000 0.500000 0.500000
v -0.500000 -0.500000 -1.002000
v 0.500000 -0.500000 -1.002000
v 0.500000 0.500000 -1.002000
v -0.500000 0.500000 -1.002000
v 0.500000 -0.500000 1.002000
v -0.500000 -0.500000 1.002000
v -0.500000 0.500000 1.002000
v 0.500000 0.500000 1.002000
v -1.001000 -1.001000 1.001000
v -1.001000 1.001000 1.001000
v -1.001000 1.001000 -1.001000
v -1.001000 -1.001000 -1.001000
v 1.001000 1.001000 -1.001000
v 1.001000 -1.001000 -1.001000
v 1.001000 1.001000 1.001000
v 1.001000 -1.001000 1.001000
v 1.000000 1.000000 -1.000000
v -1.000000 1.000000 -1.000000
v -1.000000 1.000000 1.000000
v 1.000000 1.000000 1.000000
v 1.000000 -1.000000 1.000000
v -1.000000 -1.000000 1.000000
v -1.000000 -1.000000 -1.000000
v 1.000000 -1.000000 -1.000000
v 0.600000 0.600000 1.400000
v 0.600000 1.400000 1.400000
v 0.600000 1.400000 0.600000
v 0.600000 0.600000 0.600000
v 1.400000 1.400000 0.600000
v 1.400000 0.600000 0.600000
v 1.400000 1.400000 1.400000
v 1.400000 0.600000 1.400000
v -1.400000 0.600000 -0.600000
v -1.400000 1.400000 -0.600000
v -1.400000 1.400000 -1.400000
v -1.400000 0.600000 -1.400000
v -0.600000 1.400000 -1.400000
v -0.600000 0.600000 -1.400000
v -0.600000 1.400000 -0.600000
v -0.600000 0.600000 -0.600000
v 0.600000 0.600000 -0.600000
v 0.600000 1.400000 -0.600000
v 0.600000 1.400000 -1.400000
v 0.600000 0.600000 -1.400000
v 1.400000 1.400000 -1.400000
v 1.400000 0.600000 -1.400000
v 1.400000 1.400000 -0.600000
v 1.400000 0.600000 -0.600000
v -1.400000 0.600000 1.400000
v -1.400000 1.400000 1.400000
v -1.400000 1.400000 0.600000
v -1.400000 0.600000 0.600000
v -0.600000 1.400000 0.600000
v -0.600000 0.600000 0.600000
v -0.600000 1.400000 1.400000
v -0.600000 0.600000 1.400000
v -1.400000 -1.400000 1.400000
v -1.400000 -0.600000 1.400000
v -1.400000 -0.600000 0.600000
v -1.400000 -1.400000 0.600000
v -0.600000 -0.600000 0.600000
v -0.600000 -1.400000 0.600000
v -0.600000 -0.600000 1.400000
v -0.600000 -1.400000 1.400000
v -1.400000 -1.400000 -0.600000
v -1.400000 -0.600000 -0.600000
v -1.400000 -0.600000 -1.400000
v -1.400000 -1.400000 -1.400000
v -0.600000 -0.600000 -1.400000
v -0.600000 -1.400000 -1.400000
v -0.600000 -0.600000 -0.600000
v -0.600000 -1.400000 -0.600000
v 0.600000 -1.400000 -0.600000
v 0.600000 -0.600000 -0.600000
v 0.600000 -0.600000 -1.400000
v 0.600000 -1.400000 -1.400000
v 1.400000 -0.600000 -1.400000
v 1.400000 -1.400000 -1.400000
v 1.400000 -0.600000 -0.600000
v 1.400000 -1.400000 -0.600000
v 0.600000 -1.400000 1.400000
v 0.600000 -0.600000 1.400000
v 0.600000 -0.600000 0.600000
v 0.600000 -1.400000 0.600000
v 1.400000 -0.600000 0.600000
v 1.400000 -1.400000 0.600000
v 1.400000 -0.600000 1.400000
v 1.400000 -1.400000 1.400000
v 0.900000 -0.800000 1.100000
v 0.900000 0.800000 1.100000
v 0.900000 0.800000 0.900000
v 0.900000 -0.800000 0.900000
v 1.100000 0.800000 0.900000
v 1.100000 -0.800000 0.900000
v 1.100000 0.800000 1.100000
v 1.100000 -0.800000 1.100000
v -1.100000 -0.800000 -0.900000
v -1.100000 0.800000 -0.900000
v -1.100000 0.800000 -1.100000
v -1.100000 -0.800000 -1.100000
v -0.900000 0.800000 -1.100000
v -0.900000 -0.800000 -1.100000
v -0.900000 0.800000 -0.900000
v -0.900000 -0.800000 -0.900000
v 0.900000 -0.800000 -0.900000
v 0.900000 0.800000 -0.900000
v 0.900000 0.800000 -1.100000
v 0.900000 -0.800000 -1.100000
v 1.100000 0.800000 -1.100000
v 1.100000 -0.800000 -1.100000
v 1.100000 0.800000 -0.900000
v 1.100000 -0.800000 -0.900000
v -1.100000 -1.100000 -0.800000
v -1.100000 -1.100000 0.800000
v -1.100000 -0.900000 0.800000
v -1.100000 -0.900000 -0.800000
v -0.900000 -0.900000 0.800000
v -0.900000 -0.900000 -0.800000
v -0.900000 -1.100000 0.800000
v -0.900000 -1.100000 -0.800000
v -1.100000 -0.800000 1.100000
v -1.100000 0.800000 1.100000
v -1.100000 0.800000 0.900000
v -1.100000 -0.800000 0.900000
v -0.900000 0.800000 0.900000
v -0.900000 -0.800000 0.900000
v -0.900000 0.800000 1.100000
v -0.900000 -0.800000 1.100000
v 0.900000 0.900000 -0.800000
v 0.900000 0.900000 0.800000
v 0.900000 1.100000 0.800000
v 0.900000 1.100000 -0.800000
v 1.100000 1.100000 0.800000
v 1.100000 1.100000 -0.800000
v 1.100000 0.900000 0.800000
v 1.100000 0.900000 -0.800000
v 0.900000 -1.100000 -0.800000
v 0.900000 -1.100000 0.800000
v 0.900000 -0.900000 0.800000
v 0.900000 -0.900000 -0.800000
v 1.100000 -0.900000 0.800000
v 1.100000 -0.900000 -0.800000
v 1.100000 -1.100000 0.800000
v 1.100000 -1.100000 -0.800000
v -1.100000 0.900000 -0.800000
v -1.100000 0.900000 0.800000
v -1.100000 1.100000 0.800000
v -1.100000 1.100000 -0.800000
v -0.900000 1.100000 0.800000
v -0.900000 1.100000 -0.800000
v -0.900000 0.900000 0.800000
v -0.900000 0.900000 -0.800000
v -0.800000 1.100000 -0.900000
v 0.800000 1.100000 -0.900000
v 0.800000 1.100000 -1.100000
v -0.800000 1.100000 -1.100000
v 0.800000 0.900000 -1.100000
v -0.800000 0.900000 -1.100000
v 0.800000 0.900000 -0.900000
v -0.800000 0.900000 -0.900000
v -0.800000 -0.900000 -0.900000
v 0.800000 -0.900000 -0.900000
v 0.800000 -0.900000 -1.100000
v -0.800000 -0.900000 -1.100000
v 0.800000 -1.100000 -1.100000
v -0.800000 -1.100000 -1.100000
v 0.800000 -1.100000 -0.900000
v -0.800000 -1.100000 -0.900000
v -0.800000 1.100000 1.100000
v 0.800000 1.100000 1.100000
v 0.800000 1.100000 0.900000
v -0.800000 1.100000 0.900000
v 0.800000 0.900000 0.900000
v -0.800000 0.900000 0.900000
v 0.800000 0.900000 1.100000
v -0.800000 0.900000 1.100000
v -0.800000 -0.900000 1.100000
v 0.800000 -0.900000 1.100000
v 0.800000 -0.900000 0.900000
v -0.800000 -0.900000 0.900000
v 0.800000 -1.100000 0.900000
v -0.800000 -1.100000 0.900000
v 0.800000 -1.100000 1.100000
v -0.800000 -1.100000 1.100000
vt 0.000000 0.000000
vt 1.000000 0.000000
vt 1.000000 1.000000
vt 0.000000 1.000000
vt 0.000000 0.000000
vt 1.000000 0.000000
vt 1.000000 1.000000
vt 0.000000 1.000000
vt 0.000000 0.000000
vt 1.000000 0.000000
vt 1.000000 1.000000
vt 0.000000 1.000000
vt 0.000000 0.000000
vt 1.000000 0.000000
vt 1.000000 1.000000
vt 0.000000 1.000000
vt 0.375000 0.000000
vt 0.625000 0.000000
vt 0.625000 0.250000
vt 0.375000 0.250000
vt 0.625000 0.500000
vt 0.375000 0.500000
vt 0.625000 0.750000
vt 0.375000 0.750000
vt 0.625000 1.000000
vt 0.375000 1.000000
vt 0.125000 0.500000
vt 0.125000 0.750000
vt 0.875000 0.500000
vt 0.875000 0.750000
vt 0.625000 0.500000
vt 0.875000 0.500000
vt 0.875000 0.750000
vt 0.625000 0.750000
vt 0.375000 0.750000
vt 0.625000 1.000000
vt 0.375000 1.000000
vt 0.375000 0.000000
vt 0.625000 0.000000
vt 0.625000 0.250000
vt 0.375000 0.250000
vt 0.125000 0.500000
vt 0.375000 0.500000
vt 0.125000 0.750000
vt 0.375000 0.000000
vt 0.625000 0.000000
vt 0.625000 0.250000
vt 0.375000 0.250000
vt 0.625000 0.500000
vt 0.375000 0.500000
vt 0.625000 0.750000
vt 0.375000 0.750000
vt 0.625000 1.000000
vt 0.375000 1.000000
vt 0.125000 0.500000
vt 0.125000 0.750000
vt 0.875000 0.500000
vt 0.875000 0.750000
vt 0.375000 0.000000
vt 0.625000 0.000000
vt 0.625000 0.250000
vt 0.375000 0.250000
vt 0.625000 0.500000
vt 0.375000 0.500000
vt 0.625000 0.750000
vt 0.375000 0.750000
vt 0.625000 1.000000
vt 0.375000 1.000000
vt 0.125000 0.500000
vt 0.125000 0.750000
vt 0.875000 0.500000
vt 0.875000 0.750000
vt 0.375000 0.000000
vt 0.625000 0.000000
vt 0.625000 0.250000
vt 0.375000 0.250000
vt 0.625000 0.500000
vt 0.375000 0.500000
vt 0.625000 0.750000
vt 0.375000 0.750000
vt 0.625000 1.000000
vt 0.375000 1.000000
vt 0.125000 0.500000
vt 0.125000 0.750000
vt 0.875000 0.500000
vt 0.875000 0.750000
vt 0.375000 0.000000
vt 0.625000 0.000000
vt 0.625000 0.250000
vt 0.375000 0.250000
vt 0.625000 0.500000
vt 0.375000 0.500000
vt 0.625000 0.750000
vt 0.375000 0.750000
vt 0.625000 1.000000
vt 0.375000 1.000000
vt 0.125000 0.500000
vt 0.125000 0.750000
vt 0.875000 0.500000
vt 0.875000 0.750000
vt 0.375000 0.000000
vt 0.625000 0.000000
vt 0.625000 0.250000
vt 0.375000 0.250000
vt 0.625000 0.500000
vt 0.375000 0.500000
vt 0.625000 0.750000
vt 0.375000 0.750000
vt 0.625000 1.000000
vt 0.375000 1.000000
vt 0.125000 0.500000
vt 0.125000 0.750000
vt 0.875000 0.500000
vt 0.875000 0.750000
vt 0.375000 0.000000
vt 0.625000 0.000000
vt 0.625000 0.250000
vt 0.375000 0.250000
vt 0.625000 0.500000
vt 0.375000 0.500000
vt 0.625000 0.750000
vt 0.375000 0.750000
vt 0.625000 1.000000
vt 0.375000 1.000000
vt 0.125000 0.500000
vt 0.125000 0.750000
vt 0.875000 0.500000
vt 0.875000 0.750000
vt 0.375000 0.000000
vt 0.625000 0.000000
vt 0.625000 0.250000
vt 0.375000 0.250000
vt 0.625000 0.500000
vt 0.375000 0.500000
vt 0.625000 0.750000
vt 0.375000 0.750000
vt 0.625000 1.000000
vt 0.375000 1.000000
vt 0.125000 0.500000
vt 0.125000 0.750000
vt 0.875000 0.500000
vt 0.875000 0.750000
vt 0.375000 0.000000
vt 0.625000 0.000000
vt 0.625000 0.250000
vt 0.375000 0.250000
vt 0.625000 0.500000
vt 0.375000 0.500000
vt 0.625000 0.750000
vt 0.375000 0.750000
vt 0.625000 1.000000
vt 0.375000 1.000000
vt 0.125000 0.500000
vt 0.125000 0.750000
vt 0.875000 0.500000
vt 0.875000 0.750000
vt 0.375000 0.000000
vt 0.625000 0.000000
vt 0.625000 0.250000
vt 0.375000 0.250000
vt 0.625000 0.500000
vt 0.375000 0.500000
vt 0.625000 0.750000
vt 0.375000 0.750000
vt 0.625000 1.000000
vt 0.375000 1.000000
vt 0.125000 0.500000
vt 0.125000 0.750000
vt 0.875000 0.500000
vt 0.875000 0.750000
vt 0.375000 0.000000
vt 0.625000 0.000000
vt 0.625000 0.250000
vt 0.375000 0.250000
vt 0.625000 0.500000
vt 0.375000 0.500000
vt 0.625000 0.750000
vt 0.375000 0.750000
vt 0.625000 1.000000
vt 0.375000 1.000000
vt 0.125000 0.500000
vt 0.125000 0.750000
vt 0.875000 0.500000
vt 0.875000 0.750000
vt 0.375000 0.000000
vt 0.625000 0.000000
vt 0.625000 0.250000
vt 0.375000 0.250000
vt 0.625000 0.500000
vt 0.375000 0.500000
vt 0.625000 0.750000
vt 0.375000 0.750000
vt 0.625000 1.000000
vt 0.375000 1.000000
vt 0.125000 0.500000
vt 0.125000 0.750000
vt 0.875000 0.500000
vt 0.875000 0.750000
vt 0.375000 0.000000
vt 0.625000 0.000000
vt 0.625000 0.250000
vt 0.375000 0.250000
vt 0.625000 0.500000
vt 0.375000 0.500000
vt 0.625000 0.750000
vt 0.375000 0.750000
vt 0.625000 1.000000
vt 0.375000 1.000000
vt 0.125000 0.500000
vt 0.125000 0.750000
vt 0.875000 0.500000
vt 0.875000 0.750000
vt 0.375000 0.000000
vt 0.625000 0.000000
vt 0.625000 0.250000
vt 0.375000 0.250000
vt 0.625000 0.500000
vt 0.375000 0.500000
vt 0.625000 0.750000
vt 0.375000 0.750000
vt 0.625000 1.000000
vt 0.375000 1.000000
vt 0.125000 0.500000
vt 0.125000 0.750000
vt 0.875000 0.500000
vt 0.875000 0.750000
vt 0.375000 0.000000
vt 0.625000 0.000000
vt 0.625000 0.250000
vt 0.375000 0.250000
vt 0.625000 0.500000
vt 0.375000 0.500000
vt 0.625000 0.750000
vt 0.375000 0.750000
vt 0.625000 1.000000
vt 0.375000 1.000000
vt 0.125000 0.500000
vt 0.125000 0.750000
vt 0.875000 0.500000
vt 0.875000 0.750000
vt 0.375000 0.000000
vt 0.625000 0.000000
vt 0.625000 0.250000
vt 0.375000 0.250000
vt 0.625000 0.500000
vt 0.375000 0.500000
vt 0.625000 0.750000
vt 0.375000 0.750000
vt 0.625000 1.000000
vt 0.375000 1.000000
vt 0.125000 0.500000
vt 0.125000 0.750000
vt 0.875000 0.500000
vt 0.875000 0.750000
vt 0.375000 0.000000
vt 0.625000 0.000000
vt 0.625000 0.250000
vt 0.375000 0.250000
vt 0.625000 0.500000
vt 0.375000 0.500000
vt 0.625000 0.750000
vt 0.375000 0.750000
vt 0.625000 1.000000
vt 0.375000 1.000000
vt 0.125000 0.500000
vt 0.125000 0.750000
vt 0.875000 0.500000
vt 0.875000 0.750000
vt 0.375000 0.000000
vt 0.625000 0.000000
vt 0.625000 0.250000
vt 0.375000 0.250000
vt 0.625000 0.500000
vt 0.375000 0.500000
vt 0.625000 0.750000
vt 0.375000 0.750000
vt 0.625000 1.000000
vt 0.375000 1.000000
vt 0.125000 0.500000
vt 0.125000 0.750000
vt 0.875000 0.500000
vt 0.875000 0.750000
vt 0.375000 0.000000
vt 0.625000 0.000000
vt 0.625000 0.250000
vt 0.375000 0.250000
vt 0.625000 0.500000
vt 0.375000 0.500000
vt 0.625000 0.750000
vt 0.375000 0.750000
vt 0.625000 1.000000
vt 0.375000 1.000000
vt 0.125000 0.500000
vt 0.125000 0.750000
vt 0.875000 0.500000
vt 0.875000 0.750000
vt 0.375000 0.000000
vt 0.625000 0.000000
vt 0.625000 0.250000
vt 0.375000 0.250000
vt 0.625000 0.500000
vt 0.375000 0.500000
vt 0.625000 0.750000
vt 0.375000 0.750000
vt 0.625000 1.000000
vt 0.375000 1.000000
vt 0.125000 0.500000
vt 0.125000 0.750000
vt 0.875000 0.500000
vt 0.875000 0.750000
vt 0.375000 0.000000
vt 0.625000 0.000000
vt 0.625000 0.250000
vt 0.375000 0.250000
vt 0.625000 0.500000
vt 0.375000 0.500000
vt 0.625000 0.750000
vt 0.375000 0.750000
vt 0.625000 1.000000
vt 0.375000 1.000000
vt 0.125000 0.500000
vt 0.125000 0.750000
vt 0.875000 0.500000
vt 0.875000 0.750000
vn -1.0000 0.0000 0.0000
vn 1.0000 0.0000 0.0000
vn 0.0000 -0.0000 1.0000
vn 0.0000 0.0000 -1.0000
vn 0.0000 -1.0000 -0.0000
vn 0.0000 1.0000 0.0000
usemtl clock.011
s 1
f 17/17/5 18/18/5 19/19/5 20/20/5
usemtl clock.012
f 21/21/6 22/22/6 23/23/6 24/24/6
usemtl clock.013
f 25/25/7 26/26/7 27/27/7 28/28/7
usemtl clock.014
f 29/29/8 30/30/8 31/31/8 32/32/8
usemtl Material.005
f 33/33/5 34/34/5 35/35/5 36/36/5
f 36/36/8 35/35/8 37/37/8 38/38/8
f 38/38/6 37/37/6 39/39/6 40/40/6
f 40/40/7 39/39/7 34/41/7 33/42/7
f 36/43/9 38/38/9 40/40/9 33/44/9
f 37/37/10 35/45/10 34/46/10 39/39/10
usemtl Material.006
f 41/47/10 42/48/10 43/49/10 44/50/10
f 45/51/7 44/50/7 43/52/7 46/53/7
f 46/54/5 43/55/5 42/56/5 47/57/5
f 47/58/9 48/59/9 45/51/9 46/60/9
f 48/59/6 41/47/6 44/50/6 45/51/6
f 47/57/8 42/56/8 41/47/8 48/59/8
f 49/61/5 50/62/5 51/63/5 52/64/5
f 52/64/8 51/63/8 53/65/8 54/66/8
f 54/66/6 53/65/6 55/67/6 56/68/6
f 56/68/7 55/67/7 50/69/7 49/70/7
f 52/71/9 54/66/9 56/68/9 49/72/9
f 53/65/10 51/73/10 50/74/10 55/67/10
f 57/75/5 58/76/5 59/77/5 60/78/5
f 60/78/8 59/77/8 61/79/8 62/80/8
f 62/80/6 61/79/6 63/81/6 64/82/6
f 64/82/7 63/81/7 58/83/7 57/84/7
f 60/85/9 62/80/9 64/82/9 57/86/9
f 61/79/10 59/87/10 58/88/10 63/81/10
f 65/89/5 66/90/5 67/91/5 68/92/5
f 68/92/8 67/91/8 69/93/8 70/94/8
f 70/94/6 69/93/6 71/95/6 72/96/6
f 72/96/7 71/95/7 66/97/7 65/98/7
f 68/99/9 70/94/9 72/96/9 65/100/9
f 69/93/10 67/101/10 66/102/10 71/95/10
f 73/103/5 74/104/5 75/105/5 76/106/5
f 76/106/8 75/105/8 77/107/8 78/108/8
f 78/108/6 77/107/6 79/109/6 80/110/6
f 80/110/7 79/109/7 74/111/7 73/112/7
f 76/113/9 78/108/9 80/110/9 73/114/9
f 77/107/10 75/115/10 74/116/10 79/109/10
f 81/117/5 82/118/5 83/119/5 84/120/5
f 84/120/8 83/119/8 85/121/8 86/122/8
f 86/122/6 85/121/6 87/123/6 88/124/6
f 88/124/7 87/123/7 82/125/7 81/126/7
f 84/127/9 86/122/9 88/124/9 81/128/9
f 85/121/10 83/129/10 82/130/10 87/123/10
f 89/131/5 90/132/5 91/133/5 92/134/5
f 92/134/8 91/133/8 93/135/8 94/136/8
f 94/136/6 93/135/6 95/137/6 96/138/6
f 96/138/7 95/137/7 90/139/7 89/140/7
f 92/141/9 94/136/9 96/138/9 89/142/9
f 93/135/10 91/143/10 90/144/10 95/137/10
f 97/145/5 98/146/5 99/147/5 100/148/5
f 100/148/8 99/147/8 101/149/8 102/150/8
f 102/150/6 101/149/6 103/151/6 104/152/6
f 104/152/7 103/151/7 98/153/7 97/154/7
f 100/155/9 102/150/9 104/152/9 97/156/9
f 101/149/10 99/157/10 98/158/10 103/151/10
f 105/159/5 106/160/5 107/161/5 108/162/5
f 108/162/8 107/161/8 109/163/8 110/164/8
f 110/164/6 109/163/6 111/165/6 112/166/6
f 112/166/7 111/165/7 106/167/7 105/168/7
f 108/169/9 110/164/9 112/166/9 105/170/9
f 109/163/10 107/171/10 106/172/10 111/165/10
f 113/173/5 114/174/5 115/175/5 116/176/5
f 116/176/8 115/175/8 117/177/8 118/178/8
f 118/178/6 117/177/6 119/179/6 120/180/6
f 120/180/7 119/179/7 114/181/7 113/182/7
f 116/183/9 118/178/9 120/180/9 113/184/9
f 117/177/10 115/185/10 114/186/10 119/179/10
f 121/187/5 122/188/5 123/189/5 124/190/5
f 124/190/8 123/189/8 125/191/8 126/192/8
f 126/192/6 125/191/6 127/193/6 128/194/6
f 128/194/7 127/193/7 122/195/7 121/196/7
f 124/197/9 126/192/9 128/194/9 121/198/9
f 125/191/10 123/199/10 122/200/10 127/193/10
f 129/201/5 130/202/5 131/203/5 132/204/5
f 132/204/8 131/203/8 133/205/8 134/206/8
f 134/206/6 133/205/6 135/207/6 136/208/6
f 136/208/7 135/207/7 130/209/7 129/210/7
f 132/211/9 134/206/9 136/208/9 129/212/9
f 133/205/10 131/213/10 130/214/10 135/207/10
f 137/215/5 138/216/5 139/217/5 140/218/5
f 140/218/10 139/217/10 141/219/10 142/220/10
f 142/220/6 141/219/6 143/221/6 144/222/6
f 144/222/9 143/221/9 138/223/9 137/224/9
f 140/225/8 142/220/8 144/222/8 137/226/8
f 141/219/7 139/227/7 138/228/7 143/221/7
f 145/229/5 146/230/5 147/231/5 148/232/5
f 148/232/8 147/231/8 149/233/8 150/234/8
f 150/234/6 149/233/6 151/235/6 152/236/6
f 152/236/7 151/235/7 146/237/7 145/238/7
f 148/239/9 150/234/9 152/236/9 145/240/9
f 149/233/10 147/241/10 146/242/10 151/235/10
f 153/243/5 154/244/5 155/245/5 156/246/5
f 156/246/10 155/245/10 157/247/10 158/248/10
f 158/248/6 157/247/6 159/249/6 160/250/6
f 160/250/9 159/249/9 154/251/9 153/252/9
f 156/253/8 158/248/8 160/250/8 153/254/8
f 157/247/7 155/255/7 154/256/7 159/249/7
f 161/257/5 162/258/5 163/259/5 164/260/5
f 164/260/10 163/259/10 165/261/10 166/262/10
f 166/262/6 165/261/6 167/263/6 168/264/6
f 168/264/9 167/263/9 162/265/9 161/266/9
f 164/267/8 166/262/8 168/264/8 161/268/8
f 165/261/7 163/269/7 162/270/7 167/263/7
f 169/271/5 170/272/5 171/273/5 172/274/5
f 172/274/10 171/273/10 173/275/10 174/276/10
f 174/276/6 173/275/6 175/277/6 176/278/6
f 176/278/9 175/277/9 170/279/9 169/280/9
f 172/281/8 174/276/8 176/278/8 169/282/8
f 173/275/7 171/283/7 170/284/7 175/277/7
f 177/285/10 178/286/10 179/287/10 180/288/10
f 180/288/8 179/287/8 181/289/8 182/290/8
f 182/290/9 181/289/9 183/291/9 184/292/9
f 184/292/7 183/291/7 178/293/7 177/294/7
f 180/295/5 182/290/5 184/292/5 177/296/5
f 181/289/6 179/297/6 178/298/6 183/291/6
f 185/299/10 186/300/10 187/301/10 188/302/10
f 188/302/8 187/301/8 189/303/8 190/304/8
f 190/304/9 189/303/9 191/305/9 192/306/9
f 192/306/7 191/305/7 186/307/7 185/308/7
f 188/309/5 190/304/5 192/306/5 185/310/5
f 189/303/6 187/311/6 186/312/6 191/305/6
f 193/313/10 194/314/10 195/315/10 196/316/10
f 196/316/8 195/315/8 197/317/8 198/318/8
f 198/318/9 197/317/9 199/319/9 200/320/9
f 200/320/7 199/319/7 194/321/7 193/322/7
f 196/323/5 198/318/5 200/320/5 193/324/5
f 197/317/6 195/325/6 194/326/6 199/319/6
f 201/327/10 202/328/10 203/329/10 204/330/10
f 204/330/8 203/329/8 205/331/8 206/332/8
f 206/332/9 205/331/9 207/333/9 208/334/9
f 208/334/7 207/333/7 202/335/7 201/336/7
f 204/337/5 206/332/5 208/334/5 201/338/5
f 205/331/6 203/339/6 202/340/6 207/333/6
